IKResults
version=1
nRows=54
nColumns=13
inDegrees=yes

Units are S.I. units (second, meters, Newtons, ...)
If the header above contains a line with 'inDegrees', this indicates whether rotational values are in degrees (yes) or radians (no).

endheader
time	ground_to_pelvis_rx	ground_to_pelvis_ry	ground_to_pelvis_rz	ground_to_pelvis_tx	ground_to_pelvis_ty	ground_to_pelvis_tz	pelvis_to_femur_l	femur_l_to_tibia_l_rz	tibia_l_to_metatarsal_l_rz	pelvis_to_femur_r	femur_r_to_tibia_r_rz	tibia_r_to_metatarsal_r_rz
      0.00000000	      3.64698005	      1.76855297	      0.44948070	      0.24711906	     -0.35716692	     -0.15654623	    -19.43161006	     25.68942174	     24.32186212	     32.44099194	     48.86939866	     26.28987737
      0.04200000	      2.87266869	      6.97627204	      1.26498340	      0.24363525	     -0.35553113	     -0.13600799	    -17.46754036	     25.44861657	     27.83077182	     34.83551887	     47.20574813	     24.05664802
      0.08300000	      2.26169149	     11.27528580	      2.02355633	      0.24009108	     -0.35375334	     -0.11576261	    -16.10641118	     24.87850658	     33.51413621	     36.45562099	     43.32059000	     23.07407940
      0.12500000	      2.02992340	     13.60558609	      2.36767622	      0.23739512	     -0.35288925	     -0.09687969	    -14.22015742	     24.08004623	     36.59770654	     38.51925276	     38.86776983	     23.88596407
      0.16700000	      1.97289630	     13.85354566	      2.40119769	      0.23521334	     -0.35302328	     -0.07871421	    -12.08123368	     23.32134671	     39.30231468	     40.61645908	     33.84897941	     26.24317529
      0.20800000	      1.89901875	     13.04766108	      2.23178050	      0.23314634	     -0.35370065	     -0.06113545	     -9.29955849	     22.16567625	     40.94378128	     42.23698293	     28.08048592	     29.91494234
      0.25000000	      1.00747300	     11.68764804	      2.08870452	      0.23166909	     -0.35561405	     -0.04154295	     -5.44306841	     21.08457501	     41.93272702	     42.95656252	     22.96347261	     33.82473510
      0.29200000	      0.29481471	     10.31866127	      1.89111322	      0.23047040	     -0.35829421	     -0.02312709	     -1.46262247	     19.61619053	     42.64225194	     43.28418044	     18.17124814	     37.55538784
      0.33300000	     -0.78252731	      9.31168914	      1.90951244	      0.22956313	     -0.36082304	     -0.00412127	      2.71784878	     17.92076329	     44.06356287	     42.08603060	     12.84950410	     42.14954200
      0.37500000	     -1.86133080	      8.52165279	      2.08896158	      0.22861498	     -0.36296830	      0.01452186	      6.75629533	     15.88056466	     45.92218862	     39.76471060	      6.57703845	     50.02277702
      0.41700000	     -3.25934461	      7.94049285	      2.44473655	      0.22825760	     -0.36487678	      0.03406425	     10.53468430	     13.99612967	     48.79841006	     35.38649326	      0.03373280	     56.19325420
      0.45800000	     -4.26387629	      7.48067855	      3.16735006	      0.22830198	     -0.36622751	      0.05177833	     13.40260181	     12.07276794	     52.45250395	     31.71858012	     -0.03693074	     50.84295060
      0.50000000	     -4.62423659	      7.82359003	      4.45380048	      0.22906476	     -0.36799999	      0.06704220	     14.04167858	     11.79550542	     55.96449630	     30.98683993	      6.41435907	     41.21044133
      0.54200000	     -4.89572296	      8.28183383	      5.56819656	      0.22895247	     -0.36852559	      0.08294742	     13.42706846	     14.01505870	     56.93222489	     30.42499692	     10.28596788	     37.21329951
      0.58300000	     -5.04595721	      8.29856955	      6.56939427	      0.22900405	     -0.36863946	      0.09883088	     10.43248711	     19.09812970	     57.28335546	     30.55048625	     14.85290546	     34.14827854
      0.62500000	     -4.32905379	      7.84826793	      7.10528059	      0.22820168	     -0.36654812	      0.11309558	      7.21713089	     20.04210268	     62.26533201	     30.71301140	     18.03067313	     33.00085312
      0.66700000	     -3.13475490	      7.77014677	      7.40049623	      0.22648716	     -0.36340614	      0.12686142	      2.92816603	     21.66844519	     62.62657220	     30.06757164	     19.67181166	     31.60238864
      0.70800000	     -1.70984045	      7.64170855	      7.50536815	      0.22379724	     -0.35989120	      0.14072814	     -2.09641249	     24.59429971	     58.06142170	     29.26523896	     20.71992124	     30.58824318
      0.75000000	     -0.40637139	      7.32335524	      7.32201984	      0.22099015	     -0.35639718	      0.15617733	     -7.73623329	     29.35009780	     50.04881497	     27.89306999	     21.23212342	     29.85196717
      0.79200000	      1.13936549	      5.76094383	      7.02967573	      0.21899636	     -0.35333046	      0.17212572	    -13.14079186	     33.87389800	     41.99929400	     27.23739781	     21.96234824	     30.58180223
      0.83300000	      2.48387600	      2.79629616	      6.68638656	      0.21752989	     -0.35038804	      0.18944490	    -17.95712902	     37.05407526	     36.17654478	     26.20631105	     22.36259763	     31.53831779
      0.87500000	      3.82610129	     -1.27505428	      6.24591709	      0.21611631	     -0.34722948	      0.20689606	    -22.91065595	     39.27425551	     31.22054619	     24.84139901	     22.04034163	     32.66699117
      0.91700000	      4.52074215	     -7.28454783	      5.67270261	      0.21571935	     -0.34398321	      0.22591888	    -25.58285027	     38.93386109	     26.04819672	     22.88526459	     21.19052979	     34.68533208
      0.95800000	      5.14526186	    -12.96901802	      5.16899012	      0.21640654	     -0.34196716	      0.24454209	    -28.73654614	     37.71058354	     24.02908717	     21.49644601	     20.53533761	     37.72216571
      1.00000000	      5.59534255	    -18.11882130	      4.61460789	      0.21698765	     -0.34072750	      0.26195021	    -31.87477391	     35.29500300	     24.34401892	     20.15579424	     20.19050568	     40.34713227
      1.04200000	      5.46090528	    -21.73349632	      4.07738949	      0.21696679	     -0.34034358	      0.27964697	    -34.10029148	     31.52860421	     24.56796306	     18.30305094	     19.84423640	     42.18618061
      1.08300000	      5.26986503	    -23.58909691	      3.77119199	      0.21611898	     -0.34105168	      0.29602200	    -36.36735434	     26.87186626	     26.44335425	     16.42847410	     19.74202364	     43.15918200
      1.12500000	      5.10397373	    -24.47299130	      3.54048923	      0.21476944	     -0.34253796	      0.31137610	    -37.82439974	     20.88396103	     29.01254082	     14.76324389	     19.91135636	     44.10050772
      1.16700000	      4.22058758	    -24.65049397	      2.99226953	      0.21191834	     -0.34441772	      0.32791933	    -37.77974447	     14.00155960	     33.15705381	     12.23498792	     19.79716228	     45.07368306
      1.20800000	      3.41087331	    -24.58776516	      2.37065695	      0.20877254	     -0.34699415	      0.34361807	    -36.98075524	      6.79010195	     38.07908223	     10.12047601	     20.18900400	     45.85669781
      1.25000000	      2.21475564	    -24.77910031	      1.54268947	      0.20465661	     -0.34925802	      0.36057270	    -34.39880537	     -0.92402068	     43.21961070	      7.27049531	     19.69850387	     47.61013854
      1.29200000	      1.17804692	    -25.13732717	      0.60535140	      0.20016187	     -0.35148086	      0.37669161	    -31.39090110	     -8.08126917	     48.67093804	      4.56166024	     18.88873983	     49.66355971
      1.33300000	      1.29798403	    -25.39076126	     -0.06683457	      0.19661892	     -0.35370337	      0.38945374	    -28.82325441	    -14.73414156	     54.21892249	      3.25796677	     18.18468975	     52.09860205
      1.37500000	      0.01242926	    -25.70179757	     -1.54233243	      0.19099581	     -0.35517974	      0.40601820	    -25.14149709	    -16.36219482	     51.40571946	      0.39209872	     16.23890443	     56.11418897
      1.41700000	     -0.13375899	    -25.54170215	     -2.94906319	      0.18655337	     -0.35619326	      0.41925082	    -25.44272062	     -9.57885865	     42.73077895	     -0.79159256	     15.11550560	     59.70609538
      1.45800000	     -1.14238172	    -24.97372306	     -4.39443925	      0.18192876	     -0.35686095	      0.43648850	    -24.91745888	     -4.07895147	     37.42579375	     -3.12519811	     13.66785233	     63.13297580
      1.50000000	     -0.82182660	    -24.20281246	     -5.13627912	      0.17903064	     -0.35624893	      0.45106380	    -24.82339551	     -0.02849958	     33.70739592	     -2.72561489	     14.75897890	     64.85482789
      1.54200000	     -0.22543335	    -23.16524254	     -5.60624181	      0.17701424	     -0.35420570	      0.46584879	    -24.23181008	      3.29632029	     30.45200564	     -0.38134937	     17.37038814	     66.15330141
      1.58300000	      0.69638846	    -22.01013582	     -5.96738909	      0.17520498	     -0.35119908	      0.48035456	    -23.73180183	      5.30596179	     29.35610979	      2.80933591	     19.49984782	     66.96061723
      1.62500000	      2.21810934	    -21.00834291	     -5.98905939	      0.17447151	     -0.34751427	      0.49405098	    -23.21023488	      6.41019616	     28.62573269	      7.23073358	     22.98136603	     63.20179108
      1.66700000	      3.43448743	    -19.62875048	     -5.89545176	      0.17385782	     -0.34465951	      0.50929507	    -21.89403587	      6.97648112	     27.70891141	     12.02670077	     28.13142960	     56.31836734
      1.70800000	      4.73271561	    -17.39665345	     -5.69009824	      0.17315588	     -0.34221726	      0.52457058	    -21.01342289	      7.80612953	     27.43679296	     17.44072468	     33.56586242	     49.88604437
      1.75000000	      6.10223632	    -13.28591598	     -5.61561315	      0.17117424	     -0.34007425	      0.53932341	    -20.64904568	      9.06636287	     27.98013420	     23.02018759	     38.40233354	     44.58951165
      1.79200000	      6.53851346	     -7.81745205	     -5.49041734	      0.16834404	     -0.33926078	      0.55670558	    -19.18922019	     10.35527963	     27.86821072	     26.85475633	     40.87720731	     39.67323929
      1.83300000	      7.74176975	      0.83530395	     -5.21195226	      0.16442132	     -0.33827592	      0.57216442	    -19.75259455	     12.25372437	     31.80375837	     30.61193455	     41.69089304	     34.19469476
      1.87500000	      8.03949578	     10.68241894	     -5.05896356	      0.15924906	     -0.33839406	      0.59109559	    -19.33335248	     13.91546288	     35.89718996	     32.75490213	     40.92740352	     30.07579484
      1.91700000	      8.85636148	     18.83670374	     -5.14498988	      0.15446765	     -0.33762786	      0.60829605	    -19.35654888	     14.35577775	     41.65874022	     34.73750057	     38.00831094	     28.01941968
      1.95800000	      8.66749292	     23.94068074	     -5.37023538	      0.15166424	     -0.33823619	      0.62714105	    -18.16875459	     14.71907816	     43.69763502	     36.16158595	     34.56331971	     28.04041851
      2.00000000	      7.93706783	     25.78667770	     -5.43387596	      0.15073294	     -0.33921997	      0.64557328	    -16.35661199	     15.02653407	     45.47328466	     37.47302801	     30.56760391	     29.52410548
      2.04200000	      6.03347793	     25.19971578	     -5.05304646	      0.15199308	     -0.34064831	      0.66540710	    -12.92889996	     15.27929252	     45.66422626	     37.96712874	     25.97561565	     32.55888061
      2.08300000	      4.26275058	     23.48742699	     -4.66617130	      0.15422323	     -0.34201699	      0.68381237	     -9.44486505	     15.37064734	     45.37085510	     38.46336572	     20.93026573	     36.88360070
      2.12500000	      2.38197907	     21.70439786	     -4.12079022	      0.15747620	     -0.34395599	      0.70198846	     -5.19883723	     14.47395055	     45.57158278	     38.57186788	     16.21536750	     42.16354792
      2.16700000	      0.64768471	     20.34372958	     -3.31342298	      0.16069343	     -0.34564403	      0.72000352	     -1.40393169	     13.60413375	     46.74212183	     37.96592925	     11.64399566	     47.88401295
      2.20800000	     -0.63309797	     19.76687701	     -2.37076942	      0.16280318	     -0.34671055	      0.73692341	      1.90715170	     12.01468564	     49.17865371	     36.61177322	      7.66111354	     52.51138986
